<?xml version="1.0" standalone="no"?>
<!DOCTYPE svg PUBLIC "-//W3C//DTD SVG 20010904//EN"
 "http://www.w3.org/TR/2001/REC-SVG-20010904/DTD/svg10.dtd">
<svg version="1.0" xmlns="http://www.w3.org/2000/svg"
 width="512.000000pt" height="512.000000pt" viewBox="0 0 512.000000 512.000000"
 preserveAspectRatio="xMidYMid meet">
<metadata>
Created by potrace 1.11, written by Peter Selinger 2001-2013
</metadata>
<g transform="translate(0.000000,512.000000) scale(0.100000,-0.100000)"
fill="#000000" stroke="none">
<path d="M4274 5101 c-99 -45 -162 -137 -173 -252 l-6 -66 -110 -118 c-60 -65
-118 -127 -128 -137 -9 -10 -78 -90 -151 -178 -129 -153 -177 -221 -295 -410
-30 -47 -71 -99 -95 -117 -22 -18 -63 -52 -90 -76 l-50 -45 -22 48 c-50 107
-157 137 -281 78 l-51 -24 -6 34 c-18 112 -176 206 -346 206 -151 0 -220 -56
-268 -217 -30 -102 -40 -268 -22 -359 23 -118 85 -235 141 -264 36 -18 68 -14
131 17 26 12 49 21 51 18 2 -2 18 -29 35 -60 l32 -56 -23 -29 c-12 -17 -41
-47 -63 -67 -45 -40 -45 -40 -259 -72 -60 -9 -189 -30 -285 -45 -186 -30 -231
-36 -350 -45 -94 -8 -170 -21 -235 -41 -177 -54 -318 -66 -631 -51 -136 6
-213 -5 -305 -46 -56 -25 -80 -57 -55 -75 6 -4 45 -21 86 -36 41 -16 84 -32
95 -37 11 -5 59 -18 106 -28 84 -18 116 -19 439 -21 158 0 312 14 428 40 60
13 92 16 116 9 98 -27 240 -38 461 -34 127 1 241 5 255 9 14 3 50 9 80 12 54
5 56 4 115 -42 211 -165 564 -356 940 -507 77 -31 167 -65 200 -77 l60 -21 1
-132 c1 -139 20 -289 60 -475 23 -109 24 -131 9 -272 -2 -25 -7 -81 -11 -125
-3 -44 -7 -96 -9 -115 -2 -19 -6 -73 -10 -120 -3 -47 -8 -101 -10 -120 -2 -19
-7 -75 -10 -125 -3 -49 -11 -95 -18 -101 -7 -7 -94 -44 -193 -83 -162 -64
-184 -75 -197 -103 -18 -38 -9 -75 24 -100 40 -29 143 -51 213 -44 33 4 90 9
126 11 230 18 233 18 268 69 17 25 25 57 32 122 6 49 16 112 24 139 8 28 35
122 60 210 83 286 93 371 85 670 -2 72 3 118 15 165 10 36 20 76 22 90 3 14 7
33 10 42 3 9 6 25 8 35 22 114 119 550 127 570 32 86 30 230 -6 316 -15 34
-27 67 -27 72 0 6 49 111 110 235 61 124 131 275 157 335 26 61 53 124 60 140
35 81 65 169 86 253 l22 92 -62 193 c-80 245 -90 278 -150 477 -102 344 -99
324 -57 349 37 23 76 87 76 124 0 62 -41 119 -102 144 -28 11 -37 21 -36 37 2
49 -16 162 -30 184 -29 44 -75 52 -138 23z m-14 -84 c0 -2 -12 -14 -27 -28
l-28 -24 24 28 c23 25 31 32 31 24z m107 -19 c-3 -8 -6 -5 -6 6 -1 11 2 17 5
13 3 -3 4 -12 1 -19z m10 -110 c-3 -7 -5 -2 -5 12 0 14 2 19 5 13 2 -7 2 -19
0 -25z m132 -142 c-2 -2 -13 8 -23 22 l-19 27 24 -22 c12 -12 21 -24 18 -27z
m-182 -33 c-3 -10 -5 -4 -5 12 0 17 2 24 5 18 2 -7 2 -21 0 -30z m70 -5 c-3
-7 -5 -2 -5 12 0 14 2 19 5 13 2 -7 2 -19 0 -25z m-297 -22 c0 -2 -8 -10 -17
-17 -16 -13 -17 -12 -4 4 13 16 21 21 21 13z m311 -33 c13 -16 12 -17 -3 -4
-10 7 -18 15 -18 17 0 8 8 3 21 -13z m-50 -50 c13 -16 12 -17 -3 -4 -17 13
-22 21 -14 21 2 0 10 -8 17 -17z m-371 -36 c0 -2 -15 -16 -32 -33 l-33 -29 29
33 c28 30 36 37 36 29z m197 -49 c-3 -8 -6 -5 -6 6 -1 11 2 17 5 13 3 -3 4
-12 1 -19z m-297 -61 c0 -2 -10 -12 -22 -23 l-23 -19 19 23 c18 21 26 27 26
19z m291 -116 c12 -13 33 -27 48 -32 21 -7 26 -16 27 -42 2 -48 14 -265 19
-317 2 -25 7 -89 10 -142 3 -53 10 -110 15 -127 5 -17 7 -31 4 -31 -2 0 7 -23
22 -51 25 -51 25 -52 7 -74 -88 -109 -198 -256 -301 -404 -68 -97 -130 -179
-137 -184 -33 -18 -200 -44 -269 -42 -96 3 -174 38 -208 93 -21 34 -23 49 -25
192 -2 168 -7 147 64 265 7 11 16 27 20 35 4 8 29 52 55 98 26 46 48 85 48 87
0 2 22 41 48 87 26 46 66 120 87 164 24 48 51 88 65 97 32 19 84 70 128 122
39 47 199 284 208 310 5 13 12 5 26 -32 10 -27 28 -60 39 -72z m-351 46 c0 -2
-12 -14 -27 -28 l-28 -24 24 28 c23 25 31 32 31 24z m-60 -71 c0 -2 -8 -10
-17 -17 -16 -13 -17 -12 -4 4 13 16 21 21 21 13z m160 -50 c0 -2 -8 -10 -17
-17 -16 -13 -17 -12 -4 4 13 16 21 21 21 13z m-210 -10 c0 -2 -8 -10 -17 -17
-16 -13 -17 -12 -4 4 13 16 21 21 21 13z m607 -43 c-3 -10 -5 -2 -5 17 0 19 2
27 5 18 2 -10 2 -26 0 -35z m-427 13 c0 -2 -8 -10 -17 -17 -16 -13 -17 -12 -4
4 13 16 21 21 21 13z m-220 -20 c0 -2 -8 -10 -17 -17 -16 -13 -17 -12 -4 4 13
16 21 21 21 13z m180 -30 c0 -2 -8 -10 -17 -17 -16 -13 -17 -12 -4 4 13 16 21
21 21 13z m-220 -20 c0 -2 -8 -10 -17 -17 -16 -13 -17 -12 -4 4 13 16 21 21
21 13z m697 -88 c-3 -7 -5 -2 -5 12 0 14 2 19 5 13 2 -7 2 -19 0 -25z m-567
18 c0 -2 -8 -10 -17 -17 -16 -13 -17 -12 -4 4 13 16 21 21 21 13z m-109 -139
c-10 -9 -11 -8 -5 6 3 10 9 15 12 12 3 -3 0 -11 -7 -18z m-1016 -7 c3 -6 -1
-7 -9 -4 -18 7 -21 14 -7 14 6 0 13 -4 16 -10z m1702 -37 c-3 -10 -5 -4 -5 12
0 17 2 24 5 18 2 -7 2 -21 0 -30z m-1590 -115 c-3 -7 -5 -2 -5 12 0 14 2 19 5
13 2 -7 2 -19 0 -25z m643 19 c0 -2 -10 -12 -22 -23 l-23 -19 19 23 c18 21 26
27 26 19z m957 -44 c-3 -10 -5 -4 -5 12 0 17 2 24 5 18 2 -7 2 -21 0 -30z
m-1412 -3 c10 -11 16 -20 13 -20 -3 0 -13 9 -23 20 -10 11 -16 20 -13 20 3 0
13 -9 23 -20z m126 3 c13 -16 12 -17 -3 -4 -10 7 -18 15 -18 17 0 8 8 3 21
-13z m1376 1 c-3 -3 -12 -4 -19 -1 -8 3 -5 6 6 6 11 1 17 -2 13 -5z m-1117
-17 c0 -2 -10 -12 -22 -23 l-23 -19 19 23 c18 21 26 27 26 19z m-466 -17 c42
-16 54 -54 51 -157 -4 -90 -4 -93 -37 -122 -18 -17 -37 -31 -41 -31 -10 0 -31
58 -30 85 0 20 15 191 18 210 5 30 3 29 39 15z m-617 -22 c-3 -8 -6 -5 -6 6
-1 11 2 17 5 13 3 -3 4 -12 1 -19z m510 -20 c-3 -7 -5 -2 -5 12 0 14 2 19 5
13 2 -7 2 -19 0 -25z m513 9 c0 -2 -10 -12 -22 -23 l-23 -19 19 23 c18 21 26
27 26 19z m-283 -99 c-2 -13 -4 -3 -4 22 0 25 2 35 4 23 2 -13 2 -33 0 -45z
m223 48 c0 -2 -8 -10 -17 -17 -16 -13 -17 -12 -4 4 13 16 21 21 21 13z m-463
-68 c-3 -8 -6 -5 -6 6 -1 11 2 17 5 13 3 -3 4 -12 1 -19z m1674 5 c13 -16 12
-17 -3 -4 -17 13 -22 21 -14 21 2 0 10 -8 17 -17z m-2184 -35 c-3 -7 -5 -2 -5
12 0 14 2 19 5 13 2 -7 2 -19 0 -25z m870 10 c-3 -8 -6 -5 -6 6 -1 11 2 17 5
13 3 -3 4 -12 1 -19z m1325 -30 c-8 -8 -9 -4 -5 13 4 13 8 18 11 10 2 -7 -1
-18 -6 -23z m265 -10 c-3 -8 -6 -5 -6 6 -1 11 2 17 5 13 3 -3 4 -12 1 -19z
m-1720 -80 c-3 -8 -6 -5 -6 6 -1 11 2 17 5 13 3 -3 4 -12 1 -19z m1393 19 c0
-2 -10 -12 -22 -23 l-23 -19 19 23 c18 21 26 27 26 19z m-1473 -144 c-3 -10
-5 -4 -5 12 0 17 2 24 5 18 2 -7 2 -21 0 -30z m124 14 c-10 -9 -11 -8 -5 6 3
10 9 15 12 12 3 -3 0 -11 -7 -18z m-54 -9 c-3 -8 -6 -5 -6 6 -1 11 2 17 5 13
3 -3 4 -12 1 -19z m-626 -45 c13 -16 12 -17 -3 -4 -10 7 -18 15 -18 17 0 8 8
3 21 -13z m440 -6 c-10 -9 -11 -8 -5 6 3 10 9 15 12 12 3 -3 0 -11 -7 -18z
m546 -9 c-3 -7 -5 -2 -5 12 0 14 2 19 5 13 2 -7 2 -19 0 -25z m-162 -8 c10
-11 16 -20 13 -20 -3 0 -13 9 -23 20 -10 11 -16 20 -13 20 3 0 13 -9 23 -20z
m-395 -3 c0 -2 -10 -12 -22 -23 l-23 -19 19 23 c18 21 26 27 26 19z m117 -29
c-3 -7 -5 -2 -5 12 0 14 2 19 5 13 2 -7 2 -19 0 -25z m81 13 c-7 -9 -14 -18
-15 -20 -2 -2 -3 5 -3 16 0 11 7 20 15 20 12 0 12 -3 3 -16z m128 -13 l29 -33
-32 29 c-19 17 -36 25 -44 21 -8 -5 -10 -4 -5 3 11 18 20 15 52 -20z m1084
-12 c0 -2 -8 -10 -17 -17 -16 -13 -17 -12 -4 4 13 16 21 21 21 13z m-1360 -9
c0 -2 -10 -12 -22 -23 l-23 -19 19 23 c18 21 26 27 26 19z m510 -42 c0 -8 -4
-15 -10 -15 -5 0 -7 7 -4 15 4 8 8 15 10 15 2 0 4 -7 4 -15z m-560 0 c0 -2
-10 -9 -22 -15 -22 -11 -22 -10 -4 4 21 17 26 19 26 11z m1360 -19 c0 -2 -8
-10 -17 -17 -16 -13 -17 -12 -4 4 13 16 21 21 21 13z m-1170 -50 c0 -2 -8 -10
-17 -17 -16 -13 -17 -12 -4 4 13 16 21 21 21 13z m-350 -30 c0 -2 -8 -10 -17
-17 -16 -13 -17 -12 -4 4 13 16 21 21 21 13z m240 -51 c19 -19 32 -35 29 -35
-3 0 -20 16 -39 35 -19 19 -32 35 -29 35 3 0 20 -16 39 -35z m-79 -22 c13 -16
12 -17 -3 -4 -17 13 -22 21 -14 21 2 0 10 -8 17 -17z m-241 -7 c0 -2 -8 -10
-17 -17 -16 -13 -17 -12 -4 4 13 16 21 21 21 13z m-173 -72 c-3 -3 -12 -4 -19
-1 -8 3 -5 6 6 6 11 1 17 -2 13 -5z m-330 -50 c-3 -3 -12 -4 -19 -1 -8 3 -5 6
6 6 11 1 17 -2 13 -5z m-120 -20 c-3 -3 -12 -4 -19 -1 -8 3 -5 6 6 6 11 1 17
-2 13 -5z m2504 -17 c-10 -9 -11 -8 -5 6 3 10 9 15 12 12 3 -3 0 -11 -7 -18z
m-2564 7 c-3 -3 -12 -4 -19 -1 -8 3 -5 6 6 6 11 1 17 -2 13 -5z m1020 -56 c-2
-13 -4 -3 -4 22 0 25 2 35 4 23 2 -13 2 -33 0 -45z m786 55 c-7 -2 -19 -2 -25
0 -7 3 -2 5 12 5 14 0 19 -2 13 -5z m214 -30 c-3 -10 -5 -4 -5 12 0 17 2 24 5
18 2 -7 2 -21 0 -30z m-2090 21 c-3 -3 -12 -4 -19 -1 -8 3 -5 6 6 6 11 1 17
-2 13 -5z m1160 -16 c-3 -8 -6 -5 -6 6 -1 11 2 17 5 13 3 -3 4 -12 1 -19z
m860 -10 c-3 -7 -5 -2 -5 12 0 14 2 19 5 13 2 -7 2 -19 0 -25z m-2094 15 c-7
-2 -19 -2 -25 0 -7 3 -2 5 12 5 14 0 19 -2 13 -5z m-130 -10 c-7 -2 -19 -2
-25 0 -7 3 -2 5 12 5 14 0 19 -2 13 -5z m-86 -9 c-3 -3 -12 -4 -19 -1 -8 3 -5
6 6 6 11 1 17 -2 13 -5z m1450 -36 c-3 -7 -5 -2 -5 12 0 14 2 19 5 13 2 -7 2
-19 0 -25z m-2334 -45 c-7 -2 -19 -2 -25 0 -7 3 -2 5 12 5 14 0 19 -2 13 -5z
m180 0 c-7 -2 -19 -2 -25 0 -7 3 -2 5 12 5 14 0 19 -2 13 -5z m334 1 c-3 -3
-12 -4 -19 -1 -8 3 -5 6 6 6 11 1 17 -2 13 -5z m-149 -11 c-21 -2 -55 -2 -75
0 -21 2 -4 4 37 4 41 0 58 -2 38 -4z m639 -39 c-3 -3 -12 -4 -19 -1 -8 3 -5 6
6 6 11 1 17 -2 13 -5z m1223 -7 c0 -2 -12 -14 -27 -28 l-28 -24 24 28 c23 25
31 32 31 24z m-383 -13 c-3 -3 -12 -4 -19 -1 -8 3 -5 6 6 6 11 1 17 -2 13 -5z
m-980 -10 c-3 -3 -12 -4 -19 -1 -8 3 -5 6 6 6 11 1 17 -2 13 -5z m296 -1 c-7
-2 -19 -2 -25 0 -7 3 -2 5 12 5 14 0 19 -2 13 -5z m-356 -9 c-3 -3 -12 -4 -19
-1 -8 3 -5 6 6 6 11 1 17 -2 13 -5z m450 0 c-3 -3 -12 -4 -19 -1 -8 3 -5 6 6
6 11 1 17 -2 13 -5z m410 0 c-3 -3 -12 -4 -19 -1 -8 3 -5 6 6 6 11 1 17 -2 13
-5z m1930 0 c-3 -3 -12 -4 -19 -1 -8 3 -5 6 6 6 11 1 17 -2 13 -5z m-3460 -10
c-3 -3 -12 -4 -19 -1 -8 3 -5 6 6 6 11 1 17 -2 13 -5z m1276 -1 c-7 -2 -19 -2
-25 0 -7 3 -2 5 12 5 14 0 19 -2 13 -5z m80 0 c-7 -2 -19 -2 -25 0 -7 3 -2 5
12 5 14 0 19 -2 13 -5z m488 -20 c13 -16 12 -17 -3 -4 -17 13 -22 21 -14 21 2
0 10 -8 17 -17z m289 3 c0 -2 -8 -10 -17 -17 -16 -13 -17 -12 -4 4 13 16 21
21 21 13z m-146 -102 c3 -8 2 -12 -4 -9 -6 3 -10 10 -10 16 0 14 7 11 14 -7z
m1143 -61 c-3 -10 -5 -4 -5 12 0 17 2 24 5 18 2 -7 2 -21 0 -30z m-70 -5 c-3
-7 -5 -2 -5 12 0 14 2 19 5 13 2 -7 2 -19 0 -25z m-902 -46 c-3 -3 -11 0 -18
7 -9 10 -8 11 6 5 10 -3 15 -9 12 -12z m962 -44 c-3 -7 -5 -2 -5 12 0 14 2 19
5 13 2 -7 2 -19 0 -25z m470 -5 c-3 -10 -5 -4 -5 12 0 17 2 24 5 18 2 -7 2
-21 0 -30z m-480 -55 c-3 -8 -6 -5 -6 6 -1 11 2 17 5 13 3 -3 4 -12 1 -19z
m-70 -10 c-3 -8 -6 -5 -6 6 -1 11 2 17 5 13 3 -3 4 -12 1 -19z m480 -340 c-3
-8 -6 -5 -6 6 -1 11 2 17 5 13 3 -3 4 -12 1 -19z m-440 -255 c-3 -10 -5 -4 -5
12 0 17 2 24 5 18 2 -7 2 -21 0 -30z m10 -85 c-3 -8 -6 -5 -6 6 -1 11 2 17 5
13 3 -3 4 -12 1 -19z m350 -30 c-3 -8 -6 -5 -6 6 -1 11 2 17 5 13 3 -3 4 -12
1 -19z m-340 -40 c-3 -8 -6 -5 -6 6 -1 11 2 17 5 13 3 -3 4 -12 1 -19z m20
-110 c-3 -8 -6 -5 -6 6 -1 11 2 17 5 13 3 -3 4 -12 1 -19z m260 -155 c-3 -10
-5 -4 -5 12 0 17 2 24 5 18 2 -7 2 -21 0 -30z m-220 -70 c-3 -10 -5 -4 -5 12
0 17 2 24 5 18 2 -7 2 -21 0 -30z m230 -50 c-3 -10 -5 -4 -5 12 0 17 2 24 5
18 2 -7 2 -21 0 -30z m-240 -75 c-3 -8 -6 -5 -6 6 -1 11 2 17 5 13 3 -3 4 -12
1 -19z m240 -80 c-3 -7 -5 -2 -5 12 0 14 2 19 5 13 2 -7 2 -19 0 -25z m-250
-35 c-3 -10 -5 -4 -5 12 0 17 2 24 5 18 2 -7 2 -21 0 -30z m90 -9 c-3 -3 -12
-4 -19 -1 -8 3 -5 6 6 6 11 1 17 -2 13 -5z m46 -1 c-7 -2 -19 -2 -25 0 -7 3
-2 5 12 5 14 0 19 -2 13 -5z m-20 -70 c-13 -2 -33 -2 -45 0 -13 2 -3 4 22 4
25 0 35 -2 23 -4z m-126 -35 c-3 -7 -5 -2 -5 12 0 14 2 19 5 13 2 -7 2 -19 0
-25z m-10 -120 c-3 -7 -5 -2 -5 12 0 14 2 19 5 13 2 -7 2 -19 0 -25z m-10
-120 c-3 -7 -5 -2 -5 12 0 14 2 19 5 13 2 -7 2 -19 0 -25z m-10 -120 c-3 -8
-6 -5 -6 6 -1 11 2 17 5 13 3 -3 4 -12 1 -19z m-10 -120 c-3 -8 -6 -5 -6 6 -1
11 2 17 5 13 3 -3 4 -12 1 -19z m130 -100 c-3 -7 -5 -2 -5 12 0 14 2 19 5 13
2 -7 2 -19 0 -25z m-540 -130 c-3 -8 -6 -5 -6 6 -1 11 2 17 5 13 3 -3 4 -12 1
-19z m346 -25 c-7 -2 -19 -2 -25 0 -7 3 -2 5 12 5 14 0 19 -2 13 -5z m-136 -9
c-3 -3 -12 -4 -19 -1 -8 3 -5 6 6 6 11 1 17 -2 13 -5z"/>
</g>
</svg>
